<?xml version="1.0" ?><svg fill="#FB4917" stroke="#FB4917" enable-background="new 0 0 24 24" id="Layer_1" version="1.1" viewBox="0 0 24 24" xml:space="preserve" xmlns="http://www.w3.org/2000/svg" xmlns:xlink="http://www.w3.org/1999/xlink"><g><circle cx="8" cy="8" fill="none" r="2.5" stroke="#FB4917" stroke-linecap="round" stroke-linejoin="round" stroke-miterlimit="10"/><polyline fill="none" points="8.5,15.5    10.5,23.5 23.5,0.5 14.7088623,4.6617432  " stroke="#FB4917" stroke-linecap="round" stroke-linejoin="round" stroke-miterlimit="10"/><g><path d="    M3.5337307,8.5503635C3.5125837,8.3734245,3.5,8.1826344,3.5,8c0-2.4852815,2.0147185-4.5,4.5-4.5    c1.0776024,0,2.0727854,0.3834417,2.847578,1.0151148l0,0l2.7362843-1.5096827C12.2105713,1.4711914,10.2211304,0.5,8,0.5    C3.8578491,0.5,0.5,3.8578491,0.5,8c0,0.7160645,0.1065063,1.4061279,0.2938843,2.0620117L3.5337307,8.5503635z" fill="none" stroke="#FB4917" stroke-linecap="round" stroke-linejoin="round" stroke-miterlimit="10"/><path d="    M14.7088623,4.6617432l-2.6207552,1.4559774l0,0C12.3492975,6.6878104,12.5,7.3319025,12.5,8c0,2.485281-2.014719,4.5-4.5,4.5    c-1.5673294,0-2.9513373-0.8085785-3.757071-2.023839l-2.6207366,1.4559679C2.9434814,14.0704346,5.3018188,15.5,8,15.5    c0.1676178,0,0.333951-0.0054989,0.4988289-0.016325" fill="none" stroke="#FB4917" stroke-linecap="round" stroke-linejoin="round" stroke-miterlimit="10"/></g></g><g/><g/><g/><g/><g/><g/><g/><g/><g/><g/><g/><g/><g/><g/><g/></svg>